# xmcd
#
# Track frame offsets:
#	150
#	13931
#	26895
#	39539
#	52600
#	68897
#	82399
#	94718
#	107529
#	119701
#	134540
#	148827
#	163237
#	175983
#	189019
#	203844
#	216111
#	230792
#	244443
#	259862
#	275164
#	290079
#	303514
#	316482
#	329435
#
# Disc length: 4598 seconds
#
# Revision: 2
# Processed by: cddbd v1.5.2PL0 Copyright (c) Steve Scherf et al.
# Submitted via: EZCDAudioConverter 3.1.0.1
#
DISCID=9011f419
DTITLE=Memphis Minnie - Queen Of Country Blues
DYEAR=1930
DGENRE=Blues
TTITLE0=Goin' Back To Texas
TTITLE1='Frisco Town
TTITLE2=Bumble Bee
TTITLE3=I'm Gonna Bake My Biscuits
TTITLE4=Mister Tango Blues
TTITLE5=She Wouldn't Give Me None
TTITLE6=What Fault You Find Of Me: Part 1
TTITLE7=What Fault You Find Of Me: Part 2
TTITLE8=I'm Talking About You
TTITLE9=Bumble Bee
TTITLE10=Can I Do It For You: Part 1
TTITLE11=Can I Do It For You: Part 2
TTITLE12=I'm Going Back Home
TTITLE13=Bumble Bee Blues
TTITLE14=Meningitis Blues
TTITLE15=I Never Told A Lie
TTITLE16=Don't Want No Woman
TTITLE17=Georgia Skin
TTITLE18=I Don't Want No Woman I Have To Give My Money To
TTITLE19=Memphis Minnie-Jitis Blues [Take A]
TTITLE20=Memphis Minnie-Jitis Blues [Take B]
TTITLE21=Good Girl Blues
TTITLE22=Plymouth Rock Blues
TTITLE23=Bumble Bee - No.2
TTITLE24=Georgia Skin Blues
EXTD=
EXTT0=
EXTT1=
EXTT2=
EXTT3=
EXTT4=
EXTT5=
EXTT6=
EXTT7=
EXTT8=
EXTT9=
EXTT10=
EXTT11=
EXTT12=
EXTT13=
EXTT14=
EXTT15=
EXTT16=
EXTT17=
EXTT18=
EXTT19=
EXTT20=
EXTT21=
EXTT22=
EXTT23=
EXTT24=
PLAYORDER=
